HIERARCHY
ROOT Hips
{
	OFFSET 0.000000 0.000000 0.000000
	CHANNELS 6 Xposition Yposition Zposition Zrotation Yrotation Xrotation 
	JOINT LHipJoint
	{
		OFFSET 0.000000 0.000000 0.000000
		CHANNELS 3 Zrotation Yrotation Xrotation
		JOINT LeftUpLeg
		{
			OFFSET 1.363060 -1.794630 0.839290
			CHANNELS 3 Zrotation Yrotation Xrotation
			JOINT LeftLeg
			{
				OFFSET 2.448110 -6.726130 0.000000
				CHANNELS 3 Zrotation Yrotation Xrotation
				JOINT LeftFoot
				{
					OFFSET 2.562200 -7.039590 0.000000
					CHANNELS 3 Zrotation Yrotation Xrotation
					JOINT LeftToeBase
					{
						OFFSET 0.157640 -0.433110 2.322550
						CHANNELS 3 Zrotation Yrotation Xrotation
						End Site
						{
							OFFSET 0.000000 0.000000 0.000000
						}
					}
				}
			}
		}
	}
	JOINT RHipJoint
	{
		OFFSET 0.000000 0.000000 0.000000
		CHANNELS 3 Zrotation Yrotation Xrotation
		JOINT RightUpLeg
		{
			OFFSET -1.305520 -1.794630 0.839290
			CHANNELS 3 Zrotation Yrotation Xrotation
			JOINT RightLeg
			{
				OFFSET -2.542530 -6.985550 0.000000
				CHANNELS 3 Zrotation Yrotation Xrotation
				JOINT RightFoot
				{
					OFFSET -2.568260 -7.056230 0.000000
					CHANNELS 3 Zrotation Yrotation Xrotation
					JOINT RightToeBase
					{
						OFFSET -0.164730 -0.452590 2.363150
						CHANNELS 3 Zrotation Yrotation Xrotation
						End Site
						{
							OFFSET 0.000000 0.000000 0.000000
						}
					}
				}
			}
		}
	}
	JOINT LowerBack
	{
		OFFSET 0.000000 0.000000 0.000000
		CHANNELS 3 Zrotation Yrotation Xrotation
		JOINT Spine
		{
			OFFSET 0.028270 2.035590 -0.193380
			CHANNELS 3 Zrotation Yrotation Xrotation
			JOINT Spine1
			{
				OFFSET 0.056720 2.048850 -0.042750
				CHANNELS 3 Zrotation Yrotation Xrotation
				JOINT Neck
				{
					OFFSET 0.000000 0.000000 0.000000
					CHANNELS 3 Zrotation Yrotation Xrotation
					JOINT Neck1
					{
						OFFSET -0.054170 1.746240 0.172020
						CHANNELS 3 Zrotation Yrotation Xrotation
						JOINT Head
						{
							OFFSET 0.104070 1.761360 -0.123970
							CHANNELS 3 Zrotation Yrotation Xrotation
							End Site
							{
								OFFSET 0.000000 0.000000 0.000000
							}
						}
					}
				}
				JOINT LeftShoulder
				{
					OFFSET 0.000000 0.000000 0.000000
					CHANNELS 3 Zrotation Yrotation Xrotation
					JOINT LeftArm
					{
						OFFSET 3.362410 1.200890 -0.311210
						CHANNELS 3 Zrotation Yrotation Xrotation
						JOINT LeftForeArm
						{
							OFFSET 4.983000 -0.000000 -0.000000
							CHANNELS 3 Zrotation Yrotation Xrotation
							JOINT LeftHand
							{
								OFFSET 3.483560 -0.000000 -0.000000
								CHANNELS 3 Zrotation Yrotation Xrotation
								JOINT LeftFingerBase
								{
									OFFSET 0.000000 0.000000 0.000000
									CHANNELS 3 Zrotation Yrotation Xrotation
									JOINT LeftHandIndex1
									{
										OFFSET 0.715260 -0.000000 -0.000000
										CHANNELS 3 Zrotation Yrotation Xrotation
										End Site
										{
											OFFSET 0.000000 0.000000 0.000000
										}
									}
								}
								JOINT LThumb
								{
									OFFSET 0.000000 0.000000 0.000000
									CHANNELS 3 Zrotation Yrotation Xrotation
									End Site
									{
										OFFSET 0.000000 0.000000 0.000000
									}
								}
							}
						}
					}
				}
				JOINT RightShoulder
				{
					OFFSET 0.000000 0.000000 0.000000
					CHANNELS 3 Zrotation Yrotation Xrotation
					JOINT RightArm
					{
						OFFSET -3.136600 1.374050 -0.404650
						CHANNELS 3 Zrotation Yrotation Xrotation
						JOINT RightForeArm
						{
							OFFSET -5.241900 -0.000000 -0.000000
							CHANNELS 3 Zrotation Yrotation Xrotation
							JOINT RightHand
							{
								OFFSET -3.444170 -0.000000 -0.000000
								CHANNELS 3 Zrotation Yrotation Xrotation
								JOINT RightFingerBase
								{
									OFFSET 0.000000 0.000000 0.000000
									CHANNELS 3 Zrotation Yrotation Xrotation
									JOINT RightHandIndex1
									{
										OFFSET -0.622530 -0.000000 -0.000000
										CHANNELS 3 Zrotation Yrotation Xrotation
										End Site
										{
											OFFSET 0.000000 0.000000 0.000000
										}
									}
								}
								JOINT RThumb
								{
									OFFSET 0.000000 0.000000 0.000000
									CHANNELS 3 Zrotation Yrotation Xrotation
									End Site
									{
										OFFSET 0.000000 0.000000 0.000000
									}
								}
							}
						}
					}
				}
			}
		}
	}
}
MOTION
Frames: 11
Frame Time: 0.016667
-2.068033 16.851087 23.819196 0.464496 33.482360 13.458466 13.952981 -5.601445 -17.029318 -23.730149 -58.311808 10.150926 119.195913 -75.948956 -96.787824 22.617074 36.717713 -160.494730 0.000000 0.000000 0.000000 19.160478 -2.822916 5.447772 2.960196 1.022997 -8.140926 11.552442 -20.021172 29.969672 -8.884649 22.592229 -43.498854 0.000000 0.000000 0.000000 -46.875223 -12.618635 -20.628388 -126.494316 75.680696 159.764713 139.258263 -76.127577 -153.054904 79.579256 85.891043 -131.596543 110.411735 -19.091108 101.696670 0.000000 0.000000 0.000000 100.834538 49.854200 156.677457 -154.692601 -65.511807 170.217064 26.882722 -53.894289 -124.223839 -79.609930 -26.897270 15.324064 161.517498 -15.031796 -179.999995 0.000000 0.000000 0.000000 0.000000 0.000000 0.000000 0.191071 33.513807 -40.903241 157.284842 -47.147629 -84.624184 -98.603963 78.304116 0.563928 -9.490783 -15.916862 0.203042 -8.891741 -16.490131 -0.000000 0.000000 0.000000 0.000000 0.000000 0.000000 0.000000 
-2.079151 16.879515 24.008799 -0.639135 10.997405 21.538153 -21.863398 30.437234 -18.961491 -34.708096 -21.830577 -10.413890 161.173480 -37.631611 -102.169896 -5.350208 70.886755 -131.599527 0.000000 0.000000 0.000000 15.254985 3.336987 -2.940591 0.962306 1.785532 -10.682391 11.823556 -22.785601 33.506163 -8.656645 20.694233 -41.203507 0.000000 0.000000 0.000000 8.364812 61.603132 47.242958 154.040663 2.974363 156.276204 59.765950 -72.805860 -166.084478 -31.965157 67.535068 -71.290615 40.346190 19.244609 -0.334518 0.000000 0.000000 0.000000 -14.882266 45.839767 -16.325922 -67.394030 15.361156 85.970346 131.216253 -3.958469 98.150281 -170.617262 30.185785 -149.897743 41.739498 -16.829021 -179.999999 0.000000 0.000000 0.000000 0.000000 0.000000 0.000000 -101.303848 1.366546 154.417557 -94.785758 -47.785270 175.312483 -150.068540 -12.828246 -3.533040 -22.842186 -57.281104 -1.512670 -22.942232 -57.106359 -0.000000 0.000000 0.000000 0.000000 0.000000 0.000000 0.000000 
-2.087935 16.909023 24.194393 23.533140 -48.238148 -15.146825 -27.967233 -40.574092 21.987502 150.284754 -60.764502 -144.794599 170.408179 -77.473375 -59.719048 -77.994868 -25.642376 -130.821701 0.000000 0.000000 0.000000 17.453198 19.897374 10.680782 -5.083545 22.525598 12.370487 -1.986221 5.246898 43.370317 -13.444067 38.796721 -53.430841 0.000000 0.000000 0.000000 -152.517584 -58.004466 138.955993 -62.061975 -0.760875 -59.234787 81.166773 -19.226212 -41.263894 130.592552 -21.418194 95.912470 42.546288 64.260225 53.557176 0.000000 0.000000 0.000000 164.831572 -67.945206 37.671027 -45.591254 -87.184993 71.342189 -40.680862 -82.704143 -161.946970 122.451760 73.186567 -136.726563 -113.625839 49.448471 0.000001 0.000000 0.000000 0.000000 0.000000 0.000000 0.000000 84.343023 6.463224 -108.350269 -47.805022 -70.056932 -14.263462 5.153722 6.036182 5.780825 -21.616777 -7.117905 2.870391 -22.194688 -7.410302 -0.000000 0.000000 0.000000 0.000000 0.000000 0.000000 0.000000 
-2.093901 16.939247 24.375463 9.523745 -17.695701 36.771228 -2.952097 18.701815 -17.282446 -17.745032 -25.534579 -4.191786 -26.739817 8.829877 -91.742589 -58.491719 20.205714 108.159186 0.000000 0.000000 0.000000 9.433627 9.330415 -3.289302 -8.750598 8.320430 -9.985160 6.023132 -18.032788 38.942518 -10.920947 23.024449 -39.282451 0.000000 0.000000 0.000000 28.417068 7.499470 1.251617 36.010077 -81.488376 2.212430 33.123173 71.975107 -78.023412 88.625032 21.348191 -144.487807 121.780894 28.499228 -144.938049 0.000000 0.000000 0.000000 -52.990233 10.555630 168.520414 -82.959952 -37.207643 6.262101 -73.647096 47.783144 -87.715445 144.062684 -83.959317 -51.863099 77.630754 -63.876342 -0.000027 0.000000 0.000000 0.000000 0.000000 0.000000 0.000000 -74.142982 6.920065 -65.213154 14.258081 -23.102370 24.735203 56.339542 0.666988 9.404889 -26.067706 -16.137736 4.911321 -27.698733 -15.875292 -0.000000 0.000000 0.000000 0.000000 0.000000 0.000000 0.000000 
-2.096453 16.969757 24.551965 -6.151293 -20.607120 34.642310 30.776515 -28.680665 -3.749899 -137.727580 -55.609098 174.285006 -174.001072 -48.135297 -25.865377 -83.749464 27.006249 -117.172989 0.000000 0.000000 0.000000 22.788244 16.360993 -5.838115 -6.262952 12.174212 -11.725729 4.707521 -15.463566 39.409963 -12.309783 24.538146 -37.554701 0.000000 0.000000 0.000000 -55.982763 28.519023 55.152687 -57.762342 -66.782649 1.764094 69.199185 50.981951 -9.640838 -179.629440 -59.373903 99.820421 -137.820825 -31.300755 -123.659838 0.000000 0.000000 0.000000 -75.829625 -5.036394 139.534134 -171.048781 -80.700556 -40.293763 151.351197 0.920052 -19.186093 171.786270 -45.550414 -115.079683 7.571912 78.958797 180.000000 0.000000 0.000000 0.000000 0.000000 0.000000 0.000000 -30.496154 -2.012611 -62.674333 58.267026 26.616159 40.439292 3.159950 -26.236014 8.460958 -24.743324 -23.996294 4.951922 -27.447634 -22.780081 0.000000 0.000000 0.000000 0.000000 0.000000 0.000000 0.000000 
-2.095818 17.000389 24.723649 8.244015 -21.046314 1.230086 -9.469062 9.419781 8.563144 8.471038 -59.217831 -11.468356 138.199736 -73.996931 -55.135034 123.056031 20.619278 -18.969311 0.000000 0.000000 0.000000 13.671298 10.124289 12.974021 -7.426832 3.658126 0.598379 7.892441 -18.447338 32.663314 -12.517386 23.934465 -36.743814 0.000000 0.000000 0.000000 16.695299 -58.768540 10.673934 -52.749214 -88.977726 -10.602314 59.992057 60.138558 -35.131082 33.932205 -35.646573 39.503702 117.535375 70.636038 -17.875410 0.000000 0.000000 0.000000 5.719031 -50.832524 -104.490251 -127.123108 27.396937 17.976945 -101.370811 59.105546 151.798668 175.158903 8.544520 82.711784 119.923469 69.533322 -179.999820 0.000000 0.000000 0.000000 0.000000 0.000000 0.000000 83.450086 -28.012002 -79.314198 -1.922681 -65.267993 -29.486551 -0.667563 48.358997 6.801066 -20.508737 -15.347927 3.601136 -21.674827 -15.069155 0.000000 0.000000 0.000000 0.000000 0.000000 0.000000 0.000000 
-2.092323 17.030877 24.890671 -62.144316 -6.266995 45.062416 50.974633 64.521248 -42.028751 -17.339438 -53.651931 22.002469 2.699188 -62.811306 -62.071357 -39.810504 -46.889732 -10.943789 0.000000 0.000000 0.000000 70.397002 43.039905 8.644999 3.305000 6.044639 -1.577287 9.111487 -20.936443 33.695737 -11.850101 20.702706 -33.537623 0.000000 0.000000 0.000000 -0.540002 23.620105 -46.576684 -7.420415 45.441900 -12.879094 -65.236641 -20.862751 -162.332261 -141.180220 -78.945324 100.793229 26.764299 -82.724159 -45.492371 0.000000 0.000000 0.000000 145.773483 -83.423677 98.266568 -133.585980 -26.512739 67.254517 119.577976 -60.285160 -37.712521 -19.771328 -30.651541 80.634597 -178.347152 -18.103869 0.000003 0.000000 0.000000 0.000000 0.000000 0.000000 0.000000 179.333123 61.064030 -102.951145 46.223991 -45.217079 -160.511553 -136.545420 87.028135 -162.279707 -15.388307 -57.364060 23.396541 -44.048182 -43.271169 0.000000 0.000000 0.000000 0.000000 0.000000 0.000000 0.000000 
-2.086626 17.061038 25.053219 -7.741599 -22.849549 27.200169 -2.896771 34.179967 -3.977279 -21.652983 -21.207576 -16.888508 69.022944 -36.999402 -70.626404 -65.855923 69.616039 -152.196411 0.000000 0.000000 0.000000 23.792740 16.663463 1.820921 -13.520552 8.098936 -4.776891 7.579994 -17.105348 35.247333 -14.130769 25.174056 -33.664447 0.000000 0.000000 0.000000 -28.740355 -52.391582 50.937437 124.922869 -9.621528 170.430672 -39.402613 -33.256615 28.907678 73.454403 9.705514 -5.603695 83.732075 -27.585964 64.607412 0.000000 0.000000 0.000000 83.457122 -41.769636 -176.321892 93.477305 49.328917 67.466208 -62.987579 -88.361656 31.771183 -55.183613 -18.939123 84.370116 -129.372058 20.120818 -179.999998 0.000000 0.000000 0.000000 0.000000 0.000000 0.000000 152.707729 -77.651206 62.544136 99.369709 -82.505964 134.234196 -23.350290 89.385134 9.943929 -9.913837 3.494655 5.244805 -11.215162 4.047971 -0.000000 0.000000 0.000000 0.000000 0.000000 0.000000 0.000000 
-2.079088 17.090794 25.211529 -22.387058 9.797065 -5.327625 -18.061805 38.598195 -32.475380 -0.579541 14.879972 -28.563137 176.976351 -37.795688 160.536513 -178.698742 -65.638896 -153.257225 0.000000 0.000000 0.000000 38.716785 -9.406194 23.965106 -1.089629 2.812026 -7.418549 7.966150 -20.849917 33.549131 -14.281908 22.744709 -30.896969 0.000000 0.000000 0.000000 -37.588645 -18.176713 29.263819 139.143682 -71.887531 175.776244 -118.076566 -62.860517 135.501507 -91.990566 55.502260 102.778523 110.366314 87.230525 106.858298 0.000000 0.000000 0.000000 -162.606909 -52.460066 49.063215 -32.264203 -88.562688 149.503378 -50.928446 -50.983752 -77.878230 106.528294 62.479599 145.951923 -91.859529 -8.114137 0.000003 0.000000 0.000000 0.000000 0.000000 0.000000 0.000000 -175.211439 -15.305711 67.808197 -47.513694 32.659021 -44.241326 -18.273445 58.789150 14.474261 -21.471872 -19.011895 9.179100 -27.472572 -16.450441 -0.000000 0.000000 0.000000 0.000000 0.000000 0.000000 0.000000 
-2.070363 17.120041 25.366042 -21.000866 -28.798620 26.583754 -4.453138 43.391597 -18.954432 11.650947 2.206620 -26.088819 -150.193247 -62.353968 143.702339 -101.196747 -33.223604 52.403508 0.000000 0.000000 0.000000 31.944918 20.463444 12.757072 -14.548112 3.854667 -2.750144 15.314435 -22.248940 27.720776 -14.048602 24.054469 -32.997104 0.000000 0.000000 0.000000 135.458867 -59.680062 -150.508792 150.268284 -60.776514 147.807475 110.279808 65.848669 -113.627500 -160.774695 -76.390681 -51.037596 29.614656 -83.837855 172.943693 0.000000 0.000000 0.000000 134.329474 8.800172 155.239947 78.682701 8.985746 130.813702 -141.798898 -84.169978 -176.840800 -108.978139 81.371754 -13.653698 122.118564 -40.405612 -0.000002 0.000000 0.000000 0.000000 0.000000 0.000000 0.000000 -124.407184 52.033434 -16.958665 -15.988497 19.807771 -6.346977 2.515891 31.002984 -1.349444 1.203781 -9.194765 -0.897506 2.107940 -10.013839 -0.000000 0.000000 0.000000 0.000000 0.000000 0.000000 0.000000 
-2.060664 17.148788 25.517001 -40.344132 -50.104028 24.148945 -58.093198 73.597819 -64.990300 11.786697 -7.482500 -46.163034 -87.055249 28.183288 106.223123 -22.036026 50.424721 -60.785166 0.000000 0.000000 0.000000 43.452830 19.156576 27.977567 -8.568183 14.285143 7.534552 1.001771 -13.004927 36.500935 -16.015200 28.616675 -31.701320 0.000000 0.000000 0.000000 -25.291326 -64.802202 27.930243 -175.838202 32.876257 170.524802 131.527624 32.657175 6.310894 -1.176978 -60.925507 -41.009103 150.641000 66.744578 -7.960190 0.000000 0.000000 0.000000 -126.378703 -82.719794 22.283632 151.501271 -43.815510 -125.668636 -131.691109 -7.552777 -54.184625 -19.489667 8.384414 -53.269666 55.178464 -53.100391 179.999989 0.000000 0.000000 0.000000 0.000000 0.000000 0.000000 14.057211 -74.346403 -67.861474 -13.924576 18.316219 3.261144 -6.379197 70.705554 -3.145820 -3.101625 -18.631925 -1.594073 -2.335500 -18.993862 -0.000000 0.000000 0.000000 0.000000 0.000000 0.000000 0.000000 
